<?xml version="1.0" encoding="utf-8"?>
<!-- Generator: Adobe Illustrator 17.0.0, SVG Export Plug-In . SVG Version: 6.00 Build 0)  -->
<!DOCTYPE svg PUBLIC "-//W3C//DTD SVG 1.1//EN" "http://www.w3.org/Graphics/SVG/1.1/DTD/svg11.dtd">
<svg version="1.1" id="Layer_2" xmlns="http://www.w3.org/2000/svg" xmlns:xlink="http://www.w3.org/1999/xlink" x="0px" y="0px"
	 width="192.549px" height="75.31px" viewBox="0 0 192.549 75.31" enable-background="new 0 0 192.549 75.31" xml:space="preserve">
<g>
	<path fill="#68737A" d="M49.966,23.28L44.267,8.054l2.179-0.396c1.496,4.203,2.971,8.427,4.444,13.157h0.044
		c1.54-4.73,3.125-8.955,4.687-13.157l1.915,0.264l-6.14,15.358H49.966z"/>
	<path fill="#68737A" d="M56.652,17.647c0-3.564,2.641-5.633,5.413-5.633c2.772,0,5.435,2.068,5.435,5.633
		c0,3.41-2.178,5.897-5.435,5.897C58.831,23.544,56.652,21.058,56.652,17.647z M58.787,17.647c0,2.068,0.704,4.488,3.278,4.488
		c2.597,0,3.301-2.42,3.301-4.488c0-1.98-0.814-4.225-3.301-4.225C59.601,13.423,58.787,15.667,58.787,17.647z"/>
	<path fill="#68737A" d="M69.522,8.648c0-0.55,0.462-1.166,1.254-1.166s1.254,0.616,1.254,1.166c0,0.594-0.285,1.342-1.254,1.342
		C69.809,9.99,69.522,9.242,69.522,8.648z M71.767,12.279V23.28h-1.98V12.279H71.767z"/>
	<path fill="#68737A" d="M74.802,23.28V7.108h1.98V23.28H74.802z"/>
	<path fill="#68737A" d="M84.944,22.092c-0.77,0.77-1.738,1.452-2.75,1.452c-1.849,0-3.125-1.32-3.125-3.388
		c0-1.915,1.629-3.125,3.917-3.807l2.662-0.836c-0.088-1.342-1.122-2.2-2.2-2.2c-1.276,0-2.09,0.528-2.883,1.188l-0.77-0.99
		c1.1-1.056,2.222-1.496,3.763-1.496c1.649,0,4.07,0.528,4.07,3.741v4.84c0,0.836,0.11,1.893,0.484,2.685h-2.156
		c-0.265-0.462-0.309-1.166-0.309-1.87L84.944,22.092z M83.756,17.383c-1.738,0.528-2.64,1.365-2.64,2.75
		c0,1.145,0.792,1.87,1.584,1.87c1.408,0,3.212-1.738,2.948-5.17L83.756,17.383z"/>
	<path fill="#68737A" d="M92.776,13.643c1.034-1.1,2.618-1.628,3.762-1.628c2.531,0,3.895,1.408,3.895,4.181v7.085h-1.979v-6.667
		c0-2.068-0.881-3.147-2.663-3.147c-1.562,0-2.992,1.078-2.992,3.19v6.623h-1.98V12.279h1.959V13.643z"/>
	<path fill="#68737A" d="M111.146,21.542h-0.044c-0.771,1.078-1.937,2.002-3.74,2.002c-2.971,0-4.863-2.376-4.863-5.897
		c0-2.86,2.068-5.633,5.083-5.633c1.496,0,2.839,0.572,3.521,1.628h0.044V7.108h1.98V23.28h-1.98V21.542z M111.146,17.427
		c0-2.068-1.122-4.004-3.278-4.004c-2.288,0-3.234,1.804-3.234,4.137c0,2.354,1.012,4.576,3.103,4.576
		C110.135,22.136,111.146,19.87,111.146,17.427z"/>
	<path fill="#68737A" d="M134.511,10.497c-0.727-0.594-2.377-1.342-4.027-1.342c-3.806,0-6.051,2.729-6.051,6.337
		c0,3.895,2.685,6.513,6.051,6.513c1.673,0,2.993-0.528,3.895-1.144l0.837,1.275c-1.034,0.704-2.86,1.408-4.841,1.408
		c-5.501,0-8.295-3.762-8.295-8.009c0-3.873,3.036-7.921,8.559-7.921c2.2,0,3.74,0.77,4.753,1.562L134.511,10.497z"/>
	<path fill="#68737A" d="M136.4,17.647c0-3.564,2.641-5.633,5.413-5.633c2.772,0,5.435,2.068,5.435,5.633
		c0,3.41-2.178,5.897-5.435,5.897C138.579,23.544,136.4,21.058,136.4,17.647z M138.535,17.647c0,2.068,0.704,4.488,3.278,4.488
		c2.597,0,3.301-2.42,3.301-4.488c0-1.98-0.814-4.225-3.301-4.225C139.349,13.423,138.535,15.667,138.535,17.647z"/>
	<path fill="#68737A" d="M149.535,23.28V7.108h1.98V23.28H149.535z"/>
	<path fill="#68737A" d="M154.55,23.28V7.108h1.98V23.28H154.55z"/>
	<path fill="#68737A" d="M160.864,17.912c-0.023,2.201,1.54,4.224,3.718,4.224c1.013,0,2.245-0.374,3.015-0.945l0.572,1.078
		c-1.145,0.813-2.509,1.275-3.652,1.275c-3.433,0-5.699-2.112-5.699-5.984c0-3.807,2.729-5.545,5.215-5.545
		c3.345,0,4.467,3.015,4.247,5.897H160.864z M166.475,16.591c0-1.716-0.726-3.168-2.464-3.168c-2.112,0-2.949,1.76-3.015,3.168
		H166.475z"/>
	<path fill="#68737A" d="M180.599,22.884c0,4.203-2.618,5.897-5.589,5.897c-1.628,0-3.257-0.309-4.533-1.101l0.551-1.298
		c1.342,0.771,2.574,0.99,3.938,0.99c2.267,0,3.652-1.452,3.652-4.335v-1.496h-0.044c-0.771,1.078-1.937,2.002-3.675,2.002
		c-3.036,0-4.929-2.376-4.929-5.897c0-2.86,2.112-5.633,5.259-5.633c1.32,0,2.729,0.66,3.345,1.782h0.044v-1.518h1.98V22.884z
		 M178.618,17.427c0-2.068-1.122-4.004-3.278-4.004c-2.288,0-3.234,1.804-3.234,4.137c0,2.354,1.012,4.576,3.103,4.576
		C177.606,22.136,178.618,19.87,178.618,17.427z"/>
	<path fill="#68737A" d="M185.107,17.912c-0.022,2.201,1.54,4.224,3.718,4.224c1.013,0,2.245-0.374,3.015-0.945l0.572,1.078
		c-1.144,0.813-2.509,1.275-3.652,1.275c-3.433,0-5.699-2.112-5.699-5.984c0-3.807,2.728-5.545,5.215-5.545
		c3.345,0,4.467,3.015,4.247,5.897H185.107z M190.718,16.591c0-1.716-0.726-3.168-2.464-3.168c-2.112,0-2.949,1.76-3.015,3.168
		H190.718z"/>
	<path fill="#68737A" d="M45.257,40.647c0-3.564,2.641-5.633,5.413-5.633c2.772,0,5.435,2.068,5.435,5.633
		c0,3.41-2.178,5.896-5.435,5.896C47.436,46.544,45.257,44.058,45.257,40.647z M47.392,40.647c0,2.068,0.704,4.488,3.278,4.488
		c2.597,0,3.301-2.42,3.301-4.488c0-1.98-0.814-4.225-3.301-4.225C48.205,36.423,47.392,38.667,47.392,40.647z"/>
	<path fill="#68737A" d="M58.722,46.28v-9.857h-1.761v-1.145h1.761v-1.342c0-2.948,1.98-3.828,3.213-3.828
		c0.571,0,1.254,0.109,1.738,0.462l-0.44,1.012c-0.33-0.088-0.639-0.154-1.078-0.154c-0.33,0-1.452,0.089-1.452,1.871v1.979h2.641
		v1.145h-2.641v9.857H58.722z"/>
	<path fill="#68737A" d="M79.248,32.418h-5.457v4.973h5.347v1.541h-5.347v5.809h6.403v1.54h-8.537V30.878h7.591V32.418z"/>
	<path fill="#68737A" d="M84.329,36.643c1.034-1.1,2.618-1.628,3.762-1.628c2.531,0,3.895,1.408,3.895,4.181v7.085h-1.979v-6.667
		c0-2.068-0.881-3.146-2.663-3.146c-1.562,0-2.992,1.078-2.992,3.19v6.623H82.37V35.278h1.959V36.643z"/>
	<path fill="#68737A" d="M104.68,45.884c0,4.203-2.618,5.897-5.589,5.897c-1.628,0-3.257-0.309-4.533-1.101l0.551-1.298
		c1.342,0.771,2.574,0.99,3.938,0.99c2.267,0,3.652-1.452,3.652-4.335v-1.496h-0.044c-0.771,1.078-1.937,2.002-3.675,2.002
		c-3.036,0-4.929-2.376-4.929-5.896c0-2.86,2.112-5.633,5.259-5.633c1.32,0,2.728,0.66,3.345,1.782h0.044v-1.519h1.98V45.884z
		 M102.699,40.428c0-2.068-1.122-4.005-3.278-4.005c-2.288,0-3.234,1.805-3.234,4.137c0,2.354,1.012,4.576,3.103,4.576
		C101.687,45.136,102.699,42.87,102.699,40.428z"/>
	<path fill="#68737A" d="M107.626,31.649c0-0.551,0.462-1.166,1.254-1.166s1.254,0.615,1.254,1.166c0,0.594-0.285,1.342-1.254,1.342
		C107.912,32.99,107.626,32.242,107.626,31.649z M109.87,35.278V46.28h-1.98V35.278H109.87z"/>
	<path fill="#68737A" d="M115.084,36.643c1.034-1.1,2.618-1.628,3.762-1.628c2.531,0,3.895,1.408,3.895,4.181v7.085h-1.979v-6.667
		c0-2.068-0.881-3.146-2.663-3.146c-1.562,0-2.992,1.078-2.992,3.19v6.623h-1.98V35.278h1.959V36.643z"/>
	<path fill="#68737A" d="M126.854,40.911c-0.022,2.201,1.54,4.225,3.718,4.225c1.013,0,2.245-0.374,3.015-0.945l0.572,1.078
		c-1.145,0.813-2.509,1.275-3.652,1.275c-3.433,0-5.699-2.112-5.699-5.984c0-3.807,2.729-5.545,5.215-5.545
		c3.345,0,4.467,3.015,4.247,5.897H126.854z M132.465,39.591c0-1.716-0.726-3.168-2.464-3.168c-2.112,0-2.949,1.76-3.015,3.168
		H132.465z"/>
	<path fill="#68737A" d="M138.008,40.911c-0.022,2.201,1.54,4.225,3.718,4.225c1.013,0,2.245-0.374,3.015-0.945l0.572,1.078
		c-1.145,0.813-2.509,1.275-3.652,1.275c-3.433,0-5.699-2.112-5.699-5.984c0-3.807,2.729-5.545,5.215-5.545
		c3.345,0,4.467,3.015,4.247,5.897H138.008z M143.618,39.591c0-1.716-0.726-3.168-2.464-3.168c-2.112,0-2.949,1.76-3.015,3.168
		H143.618z"/>
	<path fill="#68737A" d="M149.799,36.643l0.792-0.836c0.462-0.462,1.188-0.792,1.65-0.792c0.484,0,1.21,0.352,1.826,1.078
		l-0.902,1.276c-0.483-0.242-0.968-0.462-1.474-0.462c-1.013,0-1.849,1.012-1.849,3.454v5.919h-1.98V35.278h1.936V36.643z"/>
	<path fill="#68737A" d="M155.255,31.649c0-0.551,0.462-1.166,1.254-1.166c0.792,0,1.254,0.615,1.254,1.166
		c0,0.594-0.285,1.342-1.254,1.342C155.541,32.99,155.255,32.242,155.255,31.649z M157.499,35.278V46.28h-1.98V35.278H157.499z"/>
	<path fill="#68737A" d="M162.713,36.643c1.034-1.1,2.618-1.628,3.762-1.628c2.531,0,3.895,1.408,3.895,4.181v7.085h-1.98v-6.667
		c0-2.068-0.881-3.146-2.663-3.146c-1.562,0-2.992,1.078-2.992,3.19v6.623h-1.98V35.278h1.959V36.643z"/>
	<path fill="#68737A" d="M183.063,45.884c0,4.203-2.618,5.897-5.589,5.897c-1.628,0-3.257-0.309-4.533-1.101l0.551-1.298
		c1.342,0.771,2.574,0.99,3.938,0.99c2.267,0,3.652-1.452,3.652-4.335v-1.496h-0.044c-0.77,1.078-1.936,2.002-3.675,2.002
		c-3.036,0-4.929-2.376-4.929-5.896c0-2.86,2.112-5.633,5.259-5.633c1.32,0,2.729,0.66,3.345,1.782h0.044v-1.519h1.98V45.884z
		 M181.083,40.428c0-2.068-1.122-4.005-3.278-4.005c-2.288,0-3.234,1.805-3.234,4.137c0,2.354,1.012,4.576,3.103,4.576
		C180.071,45.136,181.083,42.87,181.083,40.428z"/>
	<path fill="#68737A" d="M56.435,64.615c0.639-1.298,0.22-3.565-0.638-4.796h-2.156l0.66-1.364h6.601l-0.682,1.364h-2.597
		c0.792,1.275,1.056,3.762,0,5.852l3.366,2.882l-1.958,0.99l-2.509-2.31c-1.188,1.342-2.926,2.31-5.061,2.31
		c-4.797,0-5.479-3.652-5.479-4.599c0-2.024,1.474-3.608,3.3-4.444c-0.857-0.814-2.002-1.87-2.002-3.454
		c0-1.805,1.65-3.433,4.114-3.433c1.167,0,2.179,0.352,3.146,1.056l-0.769,1.232c-0.374-0.242-1.232-0.748-2.179-0.748
		c-1.43,0-2.156,0.814-2.156,1.782c0,0.88,0.55,1.694,2.068,3.08L56.435,64.615z M50.252,61.558
		c-1.387,0.77-1.981,1.914-1.981,3.191c0,1.408,1.101,3.344,3.433,3.344c1.694,0,3.103-0.968,3.74-1.87L50.252,61.558z"/>
	<path fill="#68737A" d="M76.432,53.878l5.742,15.402H79.71l-1.584-4.532h-5.875l-1.65,4.532h-2.068l6.271-15.402H76.432z
		 M77.619,63.207c-0.77-2.134-1.518-4.269-2.288-7.041h-0.044c-0.792,2.772-1.606,4.907-2.442,7.041H77.619z"/>
	<path fill="#68737A" d="M85.648,59.643l0.792-0.836c0.462-0.462,1.188-0.792,1.65-0.792c0.484,0,1.21,0.352,1.826,1.078
		l-0.902,1.276c-0.483-0.242-0.968-0.462-1.474-0.462c-1.013,0-1.849,1.012-1.849,3.454v5.919h-1.98V58.278h1.937V59.643z"/>
	<path fill="#68737A" d="M99.422,68.4c-1.078,0.77-2.376,1.144-3.322,1.144c-5.215,0-5.875-4.269-5.875-5.786
		c0-2.751,1.826-5.743,5.963-5.743c1.122,0,2.135,0.286,2.948,0.902l-0.66,1.122c-0.638-0.309-1.452-0.572-2.266-0.572
		c-1.805,0-3.851,1.188-3.851,4.181c0,2.288,1.166,4.444,3.828,4.444c0.946,0,1.826-0.242,2.685-0.792L99.422,68.4z"/>
	<path fill="#68737A" d="M103.073,59.643c1.034-1.1,2.618-1.628,3.762-1.628c2.531,0,3.895,1.408,3.895,4.181v7.085h-1.979v-6.667
		c0-2.068-0.881-3.146-2.663-3.146c-1.561,0-2.992,1.078-2.992,3.19v6.623h-1.98V53.108h1.959V59.643z"/>
	<path fill="#68737A" d="M113.171,54.648c0-0.551,0.462-1.166,1.254-1.166s1.254,0.615,1.254,1.166c0,0.594-0.285,1.342-1.254,1.342
		C113.457,55.99,113.171,55.242,113.171,54.648z M115.415,58.278V69.28h-1.98V58.278H115.415z"/>
	<path fill="#68737A" d="M121.112,58.278h2.883v1.145h-2.883v6.226c0,1.541,0.309,2.465,1.519,2.465
		c0.726,0,1.144-0.176,1.518-0.374l0.483,1.1c-0.682,0.44-1.496,0.704-2.244,0.704c-2.2,0-3.257-1.275-3.257-3.521v-6.601h-1.54
		v-1.145h1.54v-2.64l1.98-0.66V58.278z"/>
	<path fill="#68737A" d="M127.119,63.911c-0.022,2.201,1.54,4.225,3.718,4.225c1.013,0,2.245-0.374,3.015-0.945l0.572,1.078
		c-1.145,0.813-2.509,1.275-3.652,1.275c-3.433,0-5.699-2.112-5.699-5.984c0-3.807,2.729-5.545,5.215-5.545
		c3.345,0,4.467,3.015,4.247,5.897H127.119z M132.729,62.591c0-1.716-0.726-3.168-2.464-3.168c-2.112,0-2.949,1.76-3.015,3.168
		H132.729z"/>
	<path fill="#68737A" d="M145.423,68.4c-1.078,0.77-2.376,1.144-3.322,1.144c-5.215,0-5.875-4.269-5.875-5.786
		c0-2.751,1.826-5.743,5.963-5.743c1.122,0,2.135,0.286,2.948,0.902l-0.66,1.122c-0.638-0.309-1.452-0.572-2.266-0.572
		c-1.805,0-3.851,1.188-3.851,4.181c0,2.288,1.166,4.444,3.828,4.444c0.946,0,1.826-0.242,2.685-0.792L145.423,68.4z"/>
	<path fill="#68737A" d="M149.558,58.278h2.883v1.145h-2.883v6.226c0,1.541,0.309,2.465,1.519,2.465
		c0.726,0,1.145-0.176,1.518-0.374l0.483,1.1c-0.682,0.44-1.496,0.704-2.244,0.704c-2.2,0-3.257-1.275-3.257-3.521v-6.601h-1.54
		v-1.145h1.54v-2.64l1.98-0.66V58.278z"/>
	<path fill="#68737A" d="M162.055,68.004c-1.122,0.969-2.112,1.54-3.543,1.54c-2.53,0-3.895-1.408-3.895-4.181v-7.085h1.98v6.645
		c0,2.068,0.88,3.168,2.662,3.168c1.519,0,2.772-1.254,2.772-3.388v-6.426h1.98V69.28h-1.958V68.004z"/>
	<path fill="#68737A" d="M169.203,59.643l0.792-0.836c0.462-0.462,1.189-0.792,1.65-0.792c0.484,0,1.21,0.352,1.826,1.078
		l-0.902,1.276c-0.483-0.242-0.968-0.462-1.474-0.462c-1.013,0-1.849,1.012-1.849,3.454v5.919h-1.98V58.278h1.936V59.643z"/>
	<path fill="#68737A" d="M175.782,63.911c-0.022,2.201,1.54,4.225,3.718,4.225c1.013,0,2.245-0.374,3.015-0.945l0.572,1.078
		c-1.145,0.813-2.509,1.275-3.652,1.275c-3.433,0-5.699-2.112-5.699-5.984c0-3.807,2.729-5.545,5.215-5.545
		c3.345,0,4.467,3.015,4.247,5.897H175.782z M181.393,62.591c0-1.716-0.726-3.168-2.464-3.168c-2.112,0-2.949,1.76-3.015,3.168
		H181.393z"/>
</g>
<g>
	<line fill="#68737A" x1="35.928" y1="-0.024" x2="35.928" y2="75.286"/>
	<rect x="35.553" y="-0.024" fill="#68737A" width="0.75" height="75.31"/>
</g>
<g>
	<path fill="#68737A" d="M17.445,34.769l-4.616,3.289L8.21,34.769c-3.283-2.244-6.098-4.17-7.571-7.094
		c1.216,5.481,6.575,7.531,12.19,11.924c5.613-4.393,10.972-6.443,12.188-11.924C23.543,30.599,20.729,32.524,17.445,34.769z"/>
	<path fill="#A90533" d="M0,7.976V8.55c0.357,0.125,0.475,0.236,0.512,0.758v13.243c0,7.365,5.995,9.313,12.319,14.26
		c6.325-4.947,12.321-6.896,12.321-14.26V9.158c0.047-0.399,0.175-0.498,0.496-0.608V7.976H0z"/>
	<g>
		<g>
			<g>
				<path fill="#FFFFFF" d="M15.325,29.536c0,0,1.024-0.437,1.586-2.132c0.494,1.034,0.365,2.095,0.365,2.095
					C16.822,29.601,15.325,29.536,15.325,29.536z"/>
				<path fill="#FFFFFF" d="M20.826,19.846c0,0,0.626,3.405-1.587,3.522c-2.135,0.111-3.141-3.101-3.141-3.101
					s0.516,6.278,3.509,5.863C22.978,25.667,20.826,19.846,20.826,19.846z"/>
			</g>
		</g>
		<path fill="#FFFFFF" d="M4.572,28.726c0.001,0,0.004,0,0.004,0c2.495-0.569,4.406-3.482,4.968-4.651L9.9,23.333l0.215,0.793
			c0.011,0.043,0.243,0.917,0.243,2.073c0,0.127-0.004,0.258-0.011,0.391c0.861,0.032,1.476-0.142,1.858-0.54
			c0.548-0.567,0.713-1.641,0.508-3.283c-0.1-0.786-0.39-2.037-0.648-3.139c-0.132-0.565-0.256-1.098-0.331-1.476
			c-0.481-2.413,0.116-3.91,0.702-4.742c0.093-0.131,0.193-0.253,0.299-0.372c-1.727,0.582-3.176,1.484-4.669,2.977l1.051,1.22
			l0.43-0.404c0.406,1.515,0.114,2.909,0.114,2.909c-0.553-0.842-1.205-1.525-1.205-1.525l0.285-0.479l-0.947-1.1l-0.109-0.125
			c-1.165,1.601-1.541,2.909-1.541,2.909l0.825,0.756l0.482,0.436l0.161-0.464c0.889,1.663,0.077,3.218,0.077,3.218
			c-0.145-0.567-0.73-1.405-0.73-1.405l0.23-0.763L5.96,20.089c-1.278,3.996-2.986,5.29-2.986,5.29s1.848-0.333,2.877-0.679
			C5.851,24.7,5.822,26.805,4.572,28.726z"/>
		<path fill="#FFFFFF" d="M23.228,14.312l-2.952,0.125c0.002,0.348-0.045,0.7-0.157,1.033c0.275,1.206,0.084,1.861,0.084,1.861
			c-0.494-1.149-0.87-1.47-0.87-1.47c-2.711-1.205-4.234,1.519-4.071,3.276c0.133,1.446,0.657,3.362,1.065,6.368
			c0.344,2.531-0.936,3.625-2.41,3.875c-0.032,0.005-0.064,0.011-0.097,0.017c-0.009,0-0.016,0-0.024,0.003
			c-0.239,0.03-0.492,0.043-0.762,0.036c-0.008-0.002-0.019-0.002-0.027-0.002c-0.03,0-0.058-0.004-0.088-0.004
			c-0.114-0.007-0.228-0.018-0.34-0.033c-1.147-0.158-3.714-0.625-6.365-0.689c1.56-0.91,2.78-2.487,3.46-3.604
			c0.04,0.309,0.072,0.688,0.072,1.104c0,0.207-0.007,0.426-0.028,0.647l-0.025,0.305l0.305,0.025
			c1.221,0.107,2.086-0.126,2.65-0.709c0.692-0.722,0.905-1.923,0.671-3.785c-0.101-0.816-0.398-2.084-0.657-3.201
			c-0.129-0.559-0.251-1.089-0.326-1.455c-0.438-2.202,0.086-3.539,0.603-4.271c0.404-0.574,0.963-0.995,1.574-1.197
			c0.012-0.002,0.023-0.004,0.033-0.006l1.008-3.094h0.317l-0.677,2.973c0.156-0.026,0.315-0.051,0.477-0.077l0.87-2.742h0.314
			l-0.569,2.656c0.9-0.116,1.878-0.207,2.961-0.286c0.176,0.071,0.364,0.273,0.531,0.556l2.842-0.875l0.106,0.308l-2.716,1.053
			c0.021,0.056,0.042,0.114,0.059,0.174l2.97-0.37l0.049,0.318l-2.881,0.576c0.011,0.054,0.02,0.107,0.028,0.161l2.997,0.097
			L23.228,14.312z M14.674,15.64c0.596-0.417,1.608-0.739,2.56-0.666c0.24,0.019,0.444-0.045,0.185-0.183
			c-0.711-0.374-2.368-0.247-2.954,0.152c-0.939,0.64-0.78,1.781-0.759,1.809C13.893,16.426,14.21,15.964,14.674,15.64z"/>
	</g>
</g>
</svg>
