<svg xmlns="http://www.w3.org/2000/svg" viewBox="0 0 200.2 57.3">
	<path d="M31.7 22.5v0.6c0.4 0.1 0.5 0.2 0.5 0.8v13.8c0 7.7 6.3 9.7 12.9 14.9C51.7 47.4 58 45.4 58 37.7v-14c0-0.4 0.2-0.5 0.5-0.6v-0.6H31.7z" fill="#A90533"/>
	<path d="M50 50.4l-4.8 3.4 -4.8-3.4c-3.4-2.3-6.4-4.4-7.9-7.4 1.3 5.7 6.9 7.9 12.7 12.5C51 50.9 56.6 48.8 57.9 43 56.3 46.1 53.4 48.1 50 50.4z" fill="#68737A"/>
	<g fill="#fff">
		<path d="M47.7 45c0 0 1.1-0.5 1.7-2.2 0.5 1.1 0.4 2.2 0.4 2.2C49.3 45 47.7 45 47.7 45z"/>
		<path d="M53.5 34.9c0 0 0.7 3.6-1.7 3.7 -2.2 0.1-3.3-3.2-3.3-3.2s0.5 6.6 3.7 6.1C55.7 40.9 53.5 34.9 53.5 34.9z"/>
		<path d="M56 29.1l-3.1 0.1c0 0.4 0 0.7-0.2 1.1 0.3 1.3 0.1 1.9 0.1 1.9 -0.5-1.2-0.9-1.5-0.9-1.5 -2.8-1.3-4.4 1.6-4.3 3.4 0.1 1.5 0.7 3.5 1.1 6.7 0.4 2.6-1 3.8-2.5 4 0 0-0.1 0-0.1 0 0 0 0 0 0 0 -0.2 0-0.5 0-0.8 0 0 0 0 0 0 0 0 0-0.1 0-0.1 0 -0.1 0-0.2 0-0.4 0 -1.2-0.2-3.9-0.7-6.6-0.7 1.6-1 2.9-2.6 3.6-3.8 0 0.3 0.1 0.7 0.1 1.2 0 0.2 0 0.4 0 0.7l0 0.3 0.3 0c1.3 0.1 2.2-0.1 2.8-0.7 0.7-0.8 0.9-2 0.7-4 -0.1-0.9-0.4-2.2-0.7-3.3 -0.1-0.6-0.3-1.1-0.3-1.5 -0.5-2.3 0.1-3.7 0.6-4.5 0.4-0.6 1-1 1.6-1.3 0 0 0 0 0 0L48 24h0.3l-0.7 3.1c0.2 0 0.3-0.1 0.5-0.1l0.9-2.9h0.3l-0.6 2.8c0.9-0.1 2-0.2 3.1-0.3 0.2 0.1 0.4 0.3 0.6 0.6l3-0.9 0.1 0.3 -2.8 1.1c0 0.1 0 0.1 0.1 0.2l3.1-0.4 0.1 0.3 -3 0.6c0 0.1 0 0.1 0 0.2l3.1 0.1L56 29.1zM47.1 30.5c0.6-0.4 1.7-0.8 2.7-0.7 0.3 0 0.5 0 0.2-0.2 -0.7-0.4-2.5-0.3-3.1 0.2 -1 0.7-0.8 1.9-0.8 1.9C46.2 31.3 46.6 30.8 47.1 30.5z"/>
		<path d="M36.5 44.1L36.5 44.1c2.6-0.6 4.6-3.6 5.2-4.9l0.4-0.8 0.2 0.8c0 0 0.3 1 0.3 2.2 0 0.1 0 0.3 0 0.4 0.9 0 1.5-0.1 1.9-0.6 0.6-0.6 0.7-1.7 0.5-3.4 -0.1-0.8-0.4-2.1-0.7-3.3 -0.1-0.6-0.3-1.1-0.3-1.5 -0.5-2.5 0.1-4.1 0.7-5 0.1-0.1 0.2-0.3 0.3-0.4 -1.8 0.6-3.3 1.6-4.9 3.1l1.1 1.3 0.4-0.4c0.4 1.6 0.1 3 0.1 3 -0.6-0.9-1.3-1.6-1.3-1.6l0.3-0.5 -1-1.2 -0.1-0.1c-1.2 1.7-1.6 3-1.6 3l0.9 0.8 0.5 0.5 0.2-0.5c0.9 1.7 0.1 3.4 0.1 3.4 -0.2-0.6-0.8-1.5-0.8-1.5l0.2-0.8L38 35.1c-1.3 4.2-3.1 5.5-3.1 5.5s1.9-0.3 3-0.7C37.8 39.9 37.8 42.1 36.5 44.1z"/>
	</g>
	<g fill="#68737A">
		<path d="M140.2 31.5c-2-1.5-3.5-2.4-3.5-3.8 0-1.5 1.1-2.1 2.2-2.1 1.6 0 2.4 1.1 2.6 2.6h0.5v-2.7c0-0.1 0-0.2-0.1-0.2 -0.8-0.3-2-0.4-2.9-0.4 -2.3 0-4.4 1.4-4.4 3.3 0 1 0.3 1.7 0.7 2.2h0c0 0 0 0 0 0 0.5 0.7 1.2 1.1 1.8 1.5 3.1 2 3.7 3.1 3.8 4.4 0.1 2.9-5.5 4.5-9.1-1.2l-1.9-2.9c1.5-0.6 2.7-1.9 2.7-3.9 0-2.3-1.9-3.3-3.9-3.3h-5.6v0.5c1.7 0.2 1.7 0.1 1.7 1.9v8.6c0 1.8 0.1 1.7-1.7 1.9v0.5h5.2V38c-1.7-0.2-1.7-0.1-1.7-1.9v-3.6h1.8c2.3 3.9 2.9 5.5 4.1 6 0.3 0.1 3.3 1.1 5.4 1.1 2.4 0 5.1-1.3 5.1-3.8C143 34.1 142.3 33.1 140.2 31.5zM128.3 32.2h-1.6v-6.3h1.5c1.4 0 2.6 0.7 2.6 2.8C130.7 30.9 129.9 32.2 128.3 32.2z"/>
		<path d="M87.3 25.5c1.3 0.1 1.9 0.4 2 1.1 0 0.3 0.1 0.6 0.1 1v7.9h0c-2.9-3.5-5.9-7-8.8-10.5h-8.2v0.4c0.9 0.1 1.6 0.5 1.7 1.2 0 0.3 0.1 0.7 0.1 1.1v5.6c0 3.2-1.4 5-4.2 5 -3 0-3.9-2.1-3.9-4.9v-5.9c0-1.9 0.1-1.9 1.9-2.1V25h-5.4v0.4c1.8 0.2 1.7 0.3 1.7 2.1v6c0 3.6 1.3 5.8 5.6 5.8 2.6 0 5.3-1.6 5.3-5.9v-5.7c0 0 0-0.1 0-0.1 0-1.7 0.7-2 1.8-2.2l0 0c1.1 0 1.7 0.7 2.2 1.4v9.1c0 0.4-0.1 0.7-0.1 1 -0.1 0.7-0.7 1-1.7 1.1v0.5h4.7V38c-1.3-0.1-1.9-0.4-2-1.1 0-0.3-0.1-0.6-0.1-1v-8.5c9.4 11.1 9.4 11.1 9.4 11.1h0.7V27.6c0-0.4 0.1-0.7 0.1-1 0.1-0.7 0.8-1 1.7-1.1V25h-4.7V25.5z"/>
		<path d="M93.7 25.5c1.7 0.2 1.7 0.1 1.7 1.9v8.7c0 1.8 0.1 1.7-1.7 1.9v0.5h5.2V38c-1.7-0.2-1.7-0.1-1.7-1.9v-8.7c0-1.8-0.1-1.7 1.7-1.9V25h-5.2V25.5z"/>
		<path d="M118.2 37.9c-1.7 0-2.5-0.1-2.5-1.8v-4.4h1.6c1.3 0 1.7 0.7 1.8 1.8h0.5v-4.1h-0.5c0 1.2-0.6 1.7-1.8 1.7h-1.6v-5.5h3.1c1.4 0 1.8 1.1 2 2.5h0.5V25h-8.9 -3.8v0.5c1.3 0 1.8 0.6 1.3 1.8 -1.2 3-2.4 5.9-3.6 8.9 -1-2.9-2.1-6.3-2.9-8.5 -0.6-1.9 0.1-2.2 1.2-2.2V25h-4.9v0.5c0.9 0 1.2 0.6 1.9 2.7 1.2 3.3 2.5 7 3.7 10.4h1c1.6-4 3.3-7.9 4.9-11.9 0.4-1 0.7-1.2 1.3-1.2 1.7 0.2 1.5 0.1 1.5 1.9v8.7c0 1.8 0.2 1.7-1.5 1.9v0.5h9.3l0.6-3.5h-0.5C120.9 37.1 121 37.9 118.2 37.9z"/>
		<path d="M144.1 25.5c1.7 0.2 1.7 0.1 1.7 1.9v8.7c0 1.8 0.1 1.7-1.7 1.9v0.5h5.2V38c-1.7-0.2-1.7-0.1-1.7-1.9v-8.7c0-1.8-0.1-1.7 1.7-1.9V25h-5.2V25.5z"/>
		<path d="M167.4 25v0.5c1.1 0 1.8 0.6 1.1 1.7l-2.7 4.9 -2.3-4.9c-0.5-1-0.6-1.7 0.8-1.7V25h-3.2 -1.3 -9l-0.5 2.9h0.5c0.6-1.3 1-2.3 2.7-2.3h1.6v10.5c0 1.8 0.1 1.7-1.7 1.9v0.5h5.2V38c-1.7-0.2-1.7-0.1-1.7-1.9V25.6h1.6c1.6 0 2.6 0.9 3.3 2.1l2.7 5.4v3c0 1.8 0.1 1.7-1.7 1.9v0.5h5.2V38c-1.7-0.2-1.7-0.1-1.7-1.9v-2.2c0-0.5 0-1 0.2-1.4l3.2-5.9c0.5-0.9 1-1.2 1.6-1.2V25H167.4z"/>
		<path d="M50.1 15.1c0 1.8-0.1 1.7 1.7 1.9v0.5h-5.3v-0.5c1.8-0.2 1.7-0.1 1.7-1.9V6.3c0-1.8-0.8-1.7-2.6-1.9V3.9h6.2v0.5c-1.8 0.2-1.7 0.1-1.7 1.9v3.4h6.9V6.3c0-1.8 0.1-1.7-1.7-1.9V3.9h5.3v0.5c-1.8 0.2-1.7 0.1-1.7 1.9v8.8c0 1.8-0.1 1.7 1.7 1.9v0.5h-5.3v-0.5c1.8-0.2 1.7-0.1 1.7-1.9v-4.6h-6.9V15.1z"/>
		<path d="M66.3 15.1c0 1.8-0.1 1.7 1.7 1.9v0.5h-5.3v-0.5c1.8-0.2 1.7-0.1 1.7-1.9V6.3c0-1.8 0.1-1.7-1.7-1.9V3.9H68v0.5c-1.8 0.2-1.7 0.1-1.7 1.9V15.1z"/>
		<path d="M82.6 17.6C79.5 13.9 76.2 10 73 6.3V15c0 0.4 0.1 0.7 0.1 1.1 0.1 0.7 0.8 1 2.1 1.1v0.5h-4.8v-0.5c0.9-0.1 1.6-0.4 1.7-1.1 0-0.3 0.1-0.6 0.1-1.1V5.7c-0.6-0.7-1.2-1.3-2.3-1.3V3.9h3.6c2.9 3.5 6 7.2 8.9 10.7h0V6.5c0-0.4-0.1-0.7-0.1-1.1 -0.1-0.7-0.8-1-2.1-1.1V3.9h4.8v0.5c-0.9 0.1-1.6 0.4-1.7 1.1 0 0.3-0.1 0.6-0.1 1.1v11.1H82.6z"/>
		<path d="M85.5 10.7c0-3 2.6-7 7.8-7 1.9 0 2.8 0.4 3.8 0.7 0.5 0.2 0.8 0.4 0.8 0.8v2.5h-0.5c-0.1-1.6-1.1-3.3-4.2-3.3 -4.1 0-5.4 2.8-5.5 6.2 0 3.1 1.5 6.7 5.5 6.7 2.5 0 2.7-0.9 2.7-2.4v-1.2c0-1.8 0.1-1.7-2.1-1.9v-0.5h5.7v0.5c-1.8 0.2-1.7 0.1-1.7 1.9v3.4c-1.3 0.5-2.9 0.9-4.7 0.9C89.1 17.8 85.5 15.9 85.5 10.7z"/>
		<path d="M106.2 15.1c0 1.8-0.1 1.7 1.7 1.9v0.5h-5.3v-0.5c1.8-0.2 1.7-0.1 1.7-1.9V4.5h-1.6c-1.7 0-2.1 1.1-2.7 2.4h-0.5l0.5-3h10.5l0.5 3h-0.5c-0.6-1.3-1-2.4-2.7-2.4h-1.6V15.1z"/>
		<path d="M111.1 11c0-4.2 3.3-7.4 7.4-7.4 4.3 0 6.7 3.7 6.7 6.7 0 4.1-3.1 7.5-7.4 7.5C114 17.8 111.1 14.8 111.1 11zM122.9 10.9c0-4.7-2.5-6.6-4.9-6.6 -3.3 0-4.7 3-4.7 5.6 0 4.7 2.4 7.2 5 7.2C121.9 17.2 122.9 13.5 122.9 10.9z"/>
		<path d="M137.8 17.6c-3.1-3.7-6.4-7.6-9.6-11.3V15c0 0.4 0.1 0.7 0.1 1.1 0.1 0.7 0.8 1 2.1 1.1v0.5h-4.8v-0.5c0.9-0.1 1.6-0.4 1.7-1.1 0-0.3 0.1-0.6 0.1-1.1V5.7c-0.5-0.7-1.2-1.3-2.3-1.3V3.9h3.6c2.9 3.5 6 7.2 8.9 10.7h0V6.5c0-0.4-0.1-0.7-0.1-1.1 -0.1-0.7-0.8-1-2.1-1.1V3.9h4.8v0.5c-0.9 0.1-1.6 0.4-1.7 1.1 0 0.3-0.1 0.6-0.1 1.1v11.1H137.8z"/>
		<path d="M28 1.2L28 1.2l-5.3 0v0.7c2 0 2.4 0.8 1.8 2.3l-4 10.9h-0.2L15.6 1.5h-1.2l-5 13.7H9.1L5.5 4.3C5 2.5 5.7 1.9 7.3 1.9V1.2H1v0.7c1.3 0 1.6 1 2.4 3.5L8 18.9h1.2l4.9-13.8 4.8 13.8h1.3c2.1-5.5 5-13.6 6-15.8 0.4-0.8 1.1-1.2 1.8-1.2L28 1.2 28 1.2z"/>
		<path d="M42.1 10.2c-2.1-1.5-3.5-2.4-3.5-3.9 0-1.5 1.1-2.1 2.3-2.1 1.7 0 2.4 1.2 2.6 2.6H44V4.1c0-0.1 0-0.2-0.1-0.2 -0.8-0.3-2-0.4-2.9-0.4 -2.4 0-4.4 1.5-4.4 3.3 0 1 0.3 1.7 0.7 2.3h0c0 0 0 0 0 0 0.5 0.7 1.2 1.1 1.8 1.5 3.1 2 3.8 3.1 3.8 4.5 0 1.2-0.9 2.5-2.7 2.6 -1.8 0.1-4-0.7-5-3.2 -0.8-2.4-2.6-7.4-3.7-10.8h-1.1c-1.6 4.3-3.8 10.7-4.7 12.4 -0.3 0.6-0.9 1-1.4 1v0.5h0.8 2.7v-0.5c-0.9 0-1.2-0.6-1-1.4l0.9-2.6h5l0.8 2.5 0.6 2c0 0 3.5 0.9 5.8 0.9 2.5 0 5-1.4 5-3.8C45 12.9 44.3 11.9 42.1 10.2zM28 12.3l2.3-6.4h0l2.1 6.4H28z"/>
		<path d="M153.8 4.8c-0.2-1.9-1.2-3.3-3.3-3.3 -1.5 0-3.1 0.8-3.1 2.7 0 1.8 1.8 3 4.5 4.9 2.8 2.1 3.7 3.4 3.7 5.6 0 3.1-3 4.9-6.2 4.9 -1.7 0-3.1-0.3-4.5-0.8 -0.1-0.1-0.2-0.2-0.2-0.4v-3.8h0.7c0.3 2.9 2.2 4.1 4.2 4.1 1.9 0 3.6-1.4 3.6-3.4 0-1.7-0.9-3.1-4.9-5.7 -1.4-1-3.2-2-3.2-4.9 0-2.4 2.5-4.3 5.5-4.3 1.1 0 2.6 0.1 3.7 0.5 0.2 0 0.2 0.2 0.2 0.3v3.5H153.8z"/>
		<path d="M162.3 15.2c0 1.8-0.1 1.7 1.7 1.9v0.5h-5.3v-0.5c1.8-0.2 1.7-0.1 1.7-1.9V4.5h-1.6c-1.7 0-2.1 1.1-2.7 2.4h-0.5l0.5-3h10.5l0.5 3h-0.5c-0.6-1.3-1-2.4-2.7-2.4h-1.6V15.2z"/>
		<path d="M169.1 13.1l-0.9 2.6c-0.3 0.8 0.1 1.4 1 1.4v0.5h-3.6v-0.5c0.5 0 1.1-0.3 1.4-1 0.8-1.7 3.1-8.1 4.8-12.5h1.1c1.3 3.9 3.3 10 4 11.7 0.4 1.1 0.7 1.7 1.6 1.7v0.5h-4.6v-0.5c1.2 0 1.4-0.6 1-1.5l-0.8-2.5H169.1zM173.9 12.3l-2.1-6.4h0l-2.3 6.4H173.9z"/>
		<path d="M183.9 15.2c0 1.8-0.1 1.7 1.7 1.9v0.5h-5.3v-0.5c1.8-0.2 1.7-0.1 1.7-1.9V4.5h-1.6c-1.7 0-2.1 1.1-2.7 2.4h-0.5l0.5-3h10.5l0.5 3h-0.5c-0.6-1.3-1-2.4-2.7-2.4h-1.6V15.2z"/>
		<path d="M189.6 17.1c1.8-0.2 1.5-0.1 1.5-1.9V6.3c0-1.8 0.3-1.7-1.5-1.9V3.9h8.6V7h-0.5c-0.2-1.4-0.6-2.5-2-2.5H193v5.6h1.6c1.2 0 1.8-0.5 1.8-1.7h0.5v4.2h-0.5c0-1.2-0.5-1.8-1.8-1.8H193v4.4c0 1.7 0.8 1.8 2.5 1.8 2.8 0 2.7-0.8 3.6-2.9h0.5l-0.6 3.5h-9.5V17.1z"/>
		<path d="M69.1 48.6h-2.7V51H69v0.8h-2.7v2.9h3.2v0.8h-4.3v-7.7h3.8V48.6z"/>
		<path d="M82 55.5l-2.8-7.6 1.1-0.2c0.7 2.1 1.5 4.2 2.2 6.6h0c0.8-2.4 1.6-4.5 2.3-6.6l1 0.1 -3.1 7.7H82z"/>
		<path d="M99.8 48.6H97V51h2.7v0.8H97v2.9h3.2v0.8H96v-7.7h3.8V48.6z"/>
		<path d="M110.8 47.8h2.2c1.3 0 2.2 0.6 2.2 2 0 1.1-0.5 1.8-1.3 2.2l1.9 3.3 -1.1 0.3 -1.8-3.3h-1.1v3.2h-1.1V47.8zM111.9 51.5h0.6c1.4 0 1.6-1 1.6-1.7 0-0.9-0.6-1.3-1.3-1.3h-0.9V51.5z"/>
		<path d="M130.1 48.6h-2.7V51h2.7v0.8h-2.7v2.9h3.2v0.8h-4.3v-7.7h3.8V48.6z"/>
		<path d="M142.7 55.5v-6.9h-2.5v-0.8h6v0.8h-2.5v6.9H142.7z"/>
		<path d="M158.1 55.5v-6.9h-2.5v-0.8h6v0.8h-2.5v6.9H158.1z"/>
	</g>
</svg>
